<?xml version="1.0" encoding="utf-8" ?>
<svg xmlns="http://www.w3.org/2000/svg" xmlns:xlink="http://www.w3.org/1999/xlink" width="26" height="29">
	<path fill="#00945E" transform="translate(-7.62939e-05 3.8147e-05)" d="M10.531934 5.2659669C10.531934 8.1740894 8.1744709 10.531934 5.2659669 10.531934C2.3578446 10.531934 0 8.1740894 0 5.2659669C0 2.3578446 2.3578446 0 5.2659669 0C8.1744709 0 10.531934 2.3578446 10.531934 5.2659669" fill-rule="evenodd"/>
	<path fill="#FFD600" transform="translate(4.47428 4.92932)" d="M20.498091 0L0.042845272 0C0.042845272 1.8804029 -0.50705153 5.7544675 2.3331921 6.899641C5.1738167 8.0448141 5.4357996 6.6887584 6.1035314 9.4969692C6.7445693 12.191158 7.9682994 12.150354 10.270468 12.142728C12.573017 12.150354 13.796366 12.191158 14.437404 9.4969692C15.105136 6.6887584 15.367119 8.0448141 18.207743 6.899641C21.047987 5.7544675 20.498091 1.8804029 20.498091 0" fill-rule="evenodd"/>
	<path fill="#FFFEF9" transform="translate(9.56981 5.41103)" d="M1.6351993 2.4447908L0 0.56400645L0.64866465 0L2.283864 1.8807843L1.6351993 2.4447908Z" fill-rule="evenodd"/>
	<path fill="#FFFEF9" transform="translate(13.0281 5.60174)" d="M1.6351993 2.4447908L0 0.56400645L0.64866465 0L2.283864 1.8807843L1.6351993 2.4447908Z" fill-rule="evenodd"/>
	<path fill="#FFFEF9" transform="translate(11.4503 7.78096)" d="M0.64866465 2.4447908L2.283864 0.56400645L1.6351993 0L0 1.8807843L0.64866465 2.4447908Z" fill-rule="evenodd"/>
	<path fill="#FFFEF9" transform="translate(8.24231 7.55982)" d="M0 0.54875273L1.5917262 2.4665272L2.2529752 1.9177746L0.66124898 0L0 0.54875273Z" fill-rule="evenodd"/>
	<path fill="#FFFEF9" transform="translate(21.6679 5.54103)" d="M1.9913738 2.185096L0 0.68641764L0.51671994 0L2.5080936 1.4982971L1.9913738 2.185096Z" fill-rule="evenodd"/>
	<path fill="#FFFEF9" transform="translate(6.571 5.41103)" d="M0.64866465 2.4447908L2.283864 0.56400645L1.6351993 0L0 1.8807843L0.64866465 2.4447908Z" fill-rule="evenodd"/>
	<path fill="#FFFEF9" transform="translate(21.1035 7.60783)" d="M0 0.60786092L1.7621865 2.3700476L2.3700476 1.7625679L0.60786092 0L0 0.60786092Z" fill-rule="evenodd"/>
	<path fill="#FFFEF9" transform="translate(15.7615 5.2379)" d="M2.3700476 0.60786092L0.60786092 2.3700476L0 1.7625679L1.7621865 0L2.3700476 0.60786092Z" fill-rule="evenodd"/>
	<path fill="#FFFEF9" transform="translate(18.8256 5.59392)" d="M0 0.41871473L1.2145778 2.5950398L1.9650611 2.1759439L0.75048327 0L0 0.41871473Z" fill-rule="evenodd"/>
	<path fill="#FFFEF9" transform="translate(14.675 7.89479)" d="M0.53159231 2.217129L2.4897892 0.67535865L1.9578155 0L0 1.5417702L0.53159231 2.217129Z" fill-rule="evenodd"/>
	<path fill="#FFFEF9" transform="translate(18.1803 7.81826)" d="M0 0.60786092L1.7621865 2.3700476L2.3700476 1.7625679L0.60786092 0L0 0.60786092Z" fill-rule="evenodd"/>
	<path fill="#FFFEF9" transform="translate(5.17719 7.60783)" d="M0 0.60786092L1.7621865 2.3700476L2.3700476 1.7625679L0.60786092 0L0 0.60786092Z" fill-rule="evenodd"/>
	<path fill="#FFD600" transform="translate(13.9926 12.9333)" d="M0 0L1.5043986 0L1.5043986 14.152787L0 14.152787L0 0Z"/>
	<path fill="#FFD600" transform="translate(8.14362 25.3492)" d="M13.202099 1.8254895C13.202099 2.8337607 10.24669 3.650979 6.6010494 3.650979C2.955409 3.650979 0 2.8337607 0 1.8254895C0 0.8172183 2.955409 0 6.6010494 0C10.24669 0 13.202099 0.8172183 13.202099 1.8254895" fill-rule="evenodd"/>
</svg>
