<?xml version="1.0" encoding="UTF-8"?>
<svg width="188px" height="194px" viewBox="0 0 188 194" version="1.1" xmlns="http://www.w3.org/2000/svg" xmlns:xlink="http://www.w3.org/1999/xlink">
    <title>illustration/ingredient/passionfruit@2x</title>
    <defs>
        <polygon id="path-1" points="0 0 187.8326 0 187.8326 194.3139 0 194.3139"></polygon>
    </defs>
    <g id="illustration/ingredient/passionfruit" stroke="none" stroke-width="1" fill="none" fill-rule="evenodd">
        <g id="Group-8" transform="translate(-0, 0)">
            <g id="Group-3">
                <mask id="mask-2" fill="white">
                    <use xlink:href="#path-1"></use>
                </mask>
                <g id="Clip-2"></g>
                <path d="M36.0226,0 C-1.9504,30.86 -16.3074,110.507 24.8176,152.788 C108.0336,238.342 176.3326,167.976 187.8326,150.625 L36.0226,0 Z" id="Fill-1" fill="#75256C" mask="url(#mask-2)"></path>
            </g>
            <path d="M50.1778,151.7627 C96.7998,190.0917 134.3658,191.0637 179.6488,142.5047 L41.0678,5.0047 C23.0568,33.4557 -10.8172,101.6167 50.1778,151.7627" id="Fill-4" fill="#FEFDF8"></path>
            <path d="M166.7551,129.7119 L49.0031,12.8789 C34.6581,39.1489 14.3931,106.8829 74.7091,149.0459 C98.9001,165.9559 139.9441,165.7539 166.7551,129.7119" id="Fill-6" fill="#FAD603"></path>
        </g>
    </g>
</svg>